<?xml version="1.0" encoding="UTF-8" standalone="no"?>
<!-- Created with Inkscape (http://www.inkscape.org/) -->
<svg xmlns:svg="http://www.w3.org/2000/svg" xmlns="http://www.w3.org/2000/svg" version="1.0" width="300" height="300" id="svg2440">
  <defs id="defs2443"/>
  <rect width="300" height="300" x="0" y="2.2467922e-15" id="rect3297" style="opacity: 1; fill: rgb(255, 255, 255); fill-opacity: 1; fill-rule: nonzero; stroke: none; stroke-width: 2; stroke-linecap: square; stroke-linejoin: miter; marker: none; stroke-miterlimit: 4; stroke-dasharray: 12, 4; stroke-dashoffset: 0pt; stroke-opacity: 0.587963; visibility: visible; display: inline; overflow: visible;"/>
  <path d="M 15.300748,300 L 85.817238,210.85651 L 109.43361,210.85651 L 152,300" id="path3249" style="fill: none; fill-rule: evenodd; stroke: rgb(212, 85, 0); stroke-width: 1px; stroke-linecap: butt; stroke-linejoin: miter; stroke-opacity: 1;"/>
  <path d="M 78.83211,119.71728 L 26.609996,165.61951 L 85.817238,210.85651 L 109.43361,210.85651 L 127.08854,189.01759 L 133.25572,136.16646 L 78.83211,119.71728 z" id="path3251" style="fill: none; fill-rule: evenodd; stroke: rgb(212, 85, 0); stroke-width: 1px; stroke-linecap: butt; stroke-linejoin: miter; stroke-opacity: 1;"/>
  <path d="M 169.3061,300 L 205.89485,235.80338 L 176.79938,202.15043 L 127.08854,189.01759 L 109.43361,210.85651 L 152,300" id="path3253" style="fill: none; fill-rule: evenodd; stroke: rgb(212, 85, 0); stroke-width: 1px; stroke-linecap: butt; stroke-linejoin: miter; stroke-opacity: 1;"/>
  <path d="M 133.25572,136.16646 L 157.3316,119.38464 L 216.87147,134.35277 L 176.79938,202.15043 L 127.08854,189.01759 L 133.25572,136.16646 L 133.25572,136.16646 z" id="path3255" style="fill: none; fill-rule: evenodd; stroke: rgb(212, 85, 0); stroke-width: 1px; stroke-linecap: butt; stroke-linejoin: miter; stroke-opacity: 1;"/>
  <path d="M 0,57.849033 L 65.394186,77.975197 L 78.83211,119.71728 L 26.609996,165.61951 L 0.33262084,165.61952" id="path3259" style="fill: none; fill-rule: evenodd; stroke: rgb(212, 85, 0); stroke-width: 1px; stroke-linecap: butt; stroke-linejoin: miter; stroke-opacity: 1;"/>
  <path d="M 15.300748,300 L 85.817238,210.85651 L 26.609996,165.61951 L 0,165.61952" id="path3257" style="fill: none; fill-rule: evenodd; stroke: rgb(212, 85, 0); stroke-width: 1px; stroke-linecap: butt; stroke-linejoin: miter; stroke-opacity: 1;"/>
  <path d="M 0,57.849033 L 65.394186,77.975197 L 98.124357,43.87879 L 98.124361,-0.02771724" id="path3261" style="fill: none; fill-rule: evenodd; stroke: rgb(212, 85, 0); stroke-width: 1px; stroke-linecap: butt; stroke-linejoin: miter; stroke-opacity: 1;"/>
  <path d="M 197.2466,0 L 196.99246,22.528648 L 153.5398,78.973072 L 98.124357,43.87879 L 98.124361,0" id="path3263" style="fill: none; fill-rule: evenodd; stroke: rgb(212, 85, 0); stroke-width: 1px; stroke-linecap: butt; stroke-linejoin: miter; stroke-opacity: 1;"/>
  <path d="M 78.83211,119.71728 L 65.394186,77.975197 L 98.124357,43.87879 L 153.5398,78.973072 L 157.3316,119.38464 L 133.25572,136.16646 L 78.83211,119.71728 z" id="path3265" style="fill: none; fill-rule: evenodd; stroke: rgb(212, 85, 0); stroke-width: 1px; stroke-linecap: butt; stroke-linejoin: miter; stroke-opacity: 1;"/>
  <path d="M 246.80771,88.117909 L 196.99246,22.528648 L 153.5398,78.973072 L 157.3316,119.38464 L 216.87147,134.35277 L 246.80771,88.117909 z" id="path3267" style="fill: none; fill-rule: evenodd; stroke: rgb(212, 85, 0); stroke-width: 1px; stroke-linecap: butt; stroke-linejoin: miter; stroke-opacity: 1;"/>
  <path d="M 197.2466,0.97016582 L 196.99246,22.528648 L 246.80771,88.117909 L 300,75.145536" id="path3269" style="fill: none; fill-rule: evenodd; stroke: rgb(212, 85, 0); stroke-width: 1px; stroke-linecap: butt; stroke-linejoin: miter; stroke-opacity: 1;"/>
  <path d="M 300.02771,210.19126 L 272.61467,202.02672 L 216.87147,134.35277 L 246.80771,88.117909 L 300,75.145536" id="path3271" style="fill: none; fill-rule: evenodd; stroke: rgb(212, 85, 0); stroke-width: 1px; stroke-linecap: butt; stroke-linejoin: miter; stroke-opacity: 1;"/>
  <path d="M 205.89485,235.80338 L 272.61467,202.02672 L 216.87147,134.35277 L 176.79938,202.15043 L 205.89485,235.80338 z" id="path3273" style="fill: none; fill-rule: evenodd; stroke: rgb(212, 85, 0); stroke-width: 1px; stroke-linecap: butt; stroke-linejoin: miter; stroke-opacity: 1;"/>
  <path d="M 169.3061,300 L 205.89485,235.80338 L 272.61467,202.02672 L 300,210.19126" id="path3275" style="fill: none; fill-rule: evenodd; stroke: rgb(212, 85, 0); stroke-width: 1px; stroke-linecap: butt; stroke-linejoin: miter; stroke-opacity: 1;"/>
  <path d="M 86.149867,163.95639 A 2.9936247,2.9936247 0 1 1 80.162618,163.95639 A 2.9936247,2.9936247 0 1 1 86.149867,163.95639 z" transform="matrix(1.00213, 0, 0, 1.00213, 0.827162, -0.688175)" id="path2451" style="opacity: 1; fill: rgb(0, 0, 0); fill-opacity: 1; fill-rule: nonzero; stroke: none; stroke-width: 2; stroke-linecap: square; stroke-linejoin: miter; marker: none; stroke-miterlimit: 4; stroke-dasharray: 12, 4; stroke-dashoffset: 0pt; stroke-opacity: 0.587963; visibility: visible; display: inline; overflow: visible;"/>
  <path d="M 86.149867,163.95639 A 2.9936247,2.9936247 0 1 1 80.162618,163.95639 A 2.9936247,2.9936247 0 1 1 86.149867,163.95639 z" transform="matrix(1.00213, 0, 0, 1.00213, -48.4013, -56.2365)" id="path3223" style="opacity: 1; fill: rgb(0, 0, 0); fill-opacity: 1; fill-rule: nonzero; stroke: none; stroke-width: 2; stroke-linecap: square; stroke-linejoin: miter; marker: none; stroke-miterlimit: 4; stroke-dasharray: 12, 4; stroke-dashoffset: 0pt; stroke-opacity: 0.587963; visibility: visible; display: inline; overflow: visible;"/>
  <path d="M 86.149867,163.95639 A 2.9936247,2.9936247 0 1 1 80.162618,163.95639 A 2.9936247,2.9936247 0 1 1 86.149867,163.95639 z" transform="matrix(1.00213, 0, 0, 1.00213, 24.7762, -78.1898)" id="path3225" style="opacity: 1; fill: rgb(0, 0, 0); fill-opacity: 1; fill-rule: nonzero; stroke: none; stroke-width: 2; stroke-linecap: square; stroke-linejoin: miter; marker: none; stroke-miterlimit: 4; stroke-dasharray: 12, 4; stroke-dashoffset: 0pt; stroke-opacity: 0.587963; visibility: visible; display: inline; overflow: visible;"/>
  <path d="M 86.149867,163.95639 A 2.9936247,2.9936247 0 1 1 80.162618,163.95639 A 2.9936247,2.9936247 0 1 1 86.149867,163.95639 z" transform="matrix(1.00213, 0, 0, 1.00213, -27.1133, -128.749)" id="path3227" style="opacity: 1; fill: rgb(0, 0, 0); fill-opacity: 1; fill-rule: nonzero; stroke: none; stroke-width: 2; stroke-linecap: square; stroke-linejoin: miter; marker: none; stroke-miterlimit: 4; stroke-dasharray: 12, 4; stroke-dashoffset: 0pt; stroke-opacity: 0.587963; visibility: visible; display: inline; overflow: visible;"/>
  <path d="M 86.149867,163.95639 A 2.9936247,2.9936247 0 1 1 80.162618,163.95639 A 2.9936247,2.9936247 0 1 1 86.149867,163.95639 z" transform="matrix(1.00213, 0, 0, 1.00213, 57.706, -130.079)" id="path3229" style="opacity: 1; fill: rgb(0, 0, 0); fill-opacity: 1; fill-rule: nonzero; stroke: none; stroke-width: 2; stroke-linecap: square; stroke-linejoin: miter; marker: none; stroke-miterlimit: 4; stroke-dasharray: 12, 4; stroke-dashoffset: 0pt; stroke-opacity: 0.587963; visibility: visible; display: inline; overflow: visible;"/>
  <path d="M 86.149867,163.95639 A 2.9936247,2.9936247 0 1 1 80.162618,163.95639 A 2.9936247,2.9936247 0 1 1 86.149867,163.95639 z" transform="matrix(1.00213, 0, 0, 1.00213, 116.581, -85.5075)" id="path3231" style="opacity: 1; fill: rgb(0, 0, 0); fill-opacity: 1; fill-rule: nonzero; stroke: none; stroke-width: 2; stroke-linecap: square; stroke-linejoin: miter; marker: none; stroke-miterlimit: 4; stroke-dasharray: 12, 4; stroke-dashoffset: 0pt; stroke-opacity: 0.587963; visibility: visible; display: inline; overflow: visible;"/>
  <path d="M 86.149867,163.95639 A 2.9936247,2.9936247 0 1 1 80.162618,163.95639 A 2.9936247,2.9936247 0 1 1 86.149867,163.95639 z" transform="matrix(1.00213, 0, 0, 1.00213, 166.807, -123.094)" id="path3233" style="opacity: 1; fill: rgb(0, 0, 0); fill-opacity: 1; fill-rule: nonzero; stroke: none; stroke-width: 2; stroke-linecap: square; stroke-linejoin: miter; marker: none; stroke-miterlimit: 4; stroke-dasharray: 12, 4; stroke-dashoffset: 0pt; stroke-opacity: 0.587963; visibility: visible; display: inline; overflow: visible;"/>
  <path d="M 86.149867,163.95639 A 2.9936247,2.9936247 0 1 1 80.162618,163.95639 A 2.9936247,2.9936247 0 1 1 86.149867,163.95639 z" transform="matrix(1.00213, 0, 0, 1.00213, 190.091, -35.6138)" id="path3235" style="opacity: 1; fill: rgb(0, 0, 0); fill-opacity: 1; fill-rule: nonzero; stroke: none; stroke-width: 2; stroke-linecap: square; stroke-linejoin: miter; marker: none; stroke-miterlimit: 4; stroke-dasharray: 12, 4; stroke-dashoffset: 0pt; stroke-opacity: 0.587963; visibility: visible; display: inline; overflow: visible;"/>
  <path d="M 86.149867,163.95639 A 2.9936247,2.9936247 0 1 1 80.162618,163.95639 A 2.9936247,2.9936247 0 1 1 86.149867,163.95639 z" transform="matrix(1.00213, 0, 0, 1.00213, 91.6338, 11.6189)" id="path3237" style="opacity: 1; fill: rgb(0, 0, 0); fill-opacity: 1; fill-rule: nonzero; stroke: none; stroke-width: 2; stroke-linecap: square; stroke-linejoin: miter; marker: none; stroke-miterlimit: 4; stroke-dasharray: 12, 4; stroke-dashoffset: 0pt; stroke-opacity: 0.587963; visibility: visible; display: inline; overflow: visible;"/>
  <path d="M 86.149867,163.95639 A 2.9936247,2.9936247 0 1 1 80.162618,163.95639 A 2.9936247,2.9936247 0 1 1 86.149867,163.95639 z" transform="matrix(1.00213, 0, 0, 1.00213, 116.581, 26.5871)" id="path3239" style="opacity: 1; fill: rgb(0, 0, 0); fill-opacity: 1; fill-rule: nonzero; stroke: none; stroke-width: 2; stroke-linecap: square; stroke-linejoin: miter; marker: none; stroke-miterlimit: 4; stroke-dasharray: 12, 4; stroke-dashoffset: 0pt; stroke-opacity: 0.587963; visibility: visible; display: inline; overflow: visible;"/>
  <path d="M 86.149867,163.95639 A 2.9936247,2.9936247 0 1 1 80.162618,163.95639 A 2.9936247,2.9936247 0 1 1 86.149867,163.95639 z" transform="matrix(1.00213, 0, 0, 1.00213, 78.6614, 60.5148)" id="path3241" style="opacity: 1; fill: rgb(0, 0, 0); fill-opacity: 1; fill-rule: nonzero; stroke: none; stroke-width: 2; stroke-linecap: square; stroke-linejoin: miter; marker: none; stroke-miterlimit: 4; stroke-dasharray: 12, 4; stroke-dashoffset: 0pt; stroke-opacity: 0.587963; visibility: visible; display: inline; overflow: visible;"/>
  <path d="M 86.149867,163.95639 A 2.9936247,2.9936247 0 1 1 80.162618,163.95639 A 2.9936247,2.9936247 0 1 1 86.149867,163.95639 z" transform="matrix(1.00213, 0, 0, 1.00213, 154.5, 103.756)" id="path3243" style="opacity: 1; fill: rgb(0, 0, 0); fill-opacity: 1; fill-rule: nonzero; stroke: none; stroke-width: 2; stroke-linecap: square; stroke-linejoin: miter; marker: none; stroke-miterlimit: 4; stroke-dasharray: 12, 4; stroke-dashoffset: 0pt; stroke-opacity: 0.587963; visibility: visible; display: inline; overflow: visible;"/>
  <path d="M 86.149867,163.95639 A 2.9936247,2.9936247 0 1 1 80.162618,163.95639 A 2.9936247,2.9936247 0 1 1 86.149867,163.95639 z" transform="matrix(1.00213, 0, 0, 1.00213, 3.8208, 95.7731)" id="path3245" style="opacity: 1; fill: rgb(0, 0, 0); fill-opacity: 1; fill-rule: nonzero; stroke: none; stroke-width: 2; stroke-linecap: square; stroke-linejoin: miter; marker: none; stroke-miterlimit: 4; stroke-dasharray: 12, 4; stroke-dashoffset: 0pt; stroke-opacity: 0.587963; visibility: visible; display: inline; overflow: visible;"/>
  <path d="M 86.149867,163.95639 A 2.9936247,2.9936247 0 1 1 80.162618,163.95639 A 2.9936247,2.9936247 0 1 1 86.149867,163.95639 z" transform="matrix(1.00213, 0, 0, 1.00213, -43.7446, 57.5212)" id="path3247" style="opacity: 1; fill: rgb(0, 0, 0); fill-opacity: 1; fill-rule: nonzero; stroke: none; stroke-width: 2; stroke-linecap: square; stroke-linejoin: miter; marker: none; stroke-miterlimit: 4; stroke-dasharray: 12, 4; stroke-dashoffset: 0pt; stroke-opacity: 0.587963; visibility: visible; display: inline; overflow: visible;"/>
</svg>